# xmcd
#
# Track frame offsets:
#	150
#	16490
#	32055
#	49082
#	68174
#	83272
#	99026
#	114116
#	132463
#	151478
#	167315
#	184533
#	201316
#	218364
#	237849
#	254209
#	274162
#	291207
#	313766
#
# Disc length: 4409 seconds
#
# Revision: 1
# Processed by: cddbd v1.5.2PL0 Copyright (c) Steve Scherf et al.
# Submitted via: audiograbber 1.83.01
#
DISCID=fc113713
DTITLE=Татьяна Овсиенко - Все хиты 1989-2005
DYEAR=1900
DGENRE=
TTITLE0=Капитан
TTITLE1=Женское счастье
TTITLE2=За розовым морем
TTITLE3=Дальнобойщик
TTITLE4=Река любви
TTITLE5=Я буду лететь за тобой
TTITLE6=Колечко
TTITLE7=Мой моряк
TTITLE8=Лето
TTITLE9=Не забудь
TTITLE10=Не провожай
TTITLE11=Школьная пора
TTITLE12=Солнце мое
TTITLE13=Сон
TTITLE14=Надо влюбиться
TTITLE15=Я знаю, все проходит
TTITLE16=Красивая девчонка
TTITLE17=Обетованная земля
TTITLE18=Запомни меня
EXTD=
EXTT0=
EXTT1=
EXTT2=
EXTT3=
EXTT4=
EXTT5=
EXTT6=
EXTT7=
EXTT8=
EXTT9=
EXTT10=
EXTT11=
EXTT12=
EXTT13=
EXTT14=
EXTT15=
EXTT16=
EXTT17=
EXTT18=
PLAYORDER=
